# xmcd
#
# Track frame offsets: 
#        150
#        13297
#        26917
#        40717
#        55030
#        66795
#        81012
#        95777
#        109035
#        123890
#        137097
#        150075
#        163852
#        176980
#        190600
#        204525
#        215772
#        230747
#        244370
#        257322
#        271747
#
# Disc length: 3808 seconds
#
# Revision: 3
# Processed by: cddbd v1.5.2PL0 Copyright (c) Steve Scherf et al.
# Submitted via: ExactAudioCopy v0.99pb4
#
DISCID=250ede15
DTITLE=Charlie Parker - The Complete Savoy and Dial Master Takes [CD1)
DYEAR=2002
DGENRE=Jazz
TTITLE0=Tiny's Tempo
TTITLE1=I'll Always Love You Just the Same
TTITLE2=Romance Without Finance
TTITLE3=Red Cross
TTITLE4=Warmin' Up a Riff
TTITLE5=Billie's Bounce
TTITLE6=Now's the Time
TTITLE7=Thrivin' from a Riff
TTITLE8=Meandering
TTITLE9=KoKo
TTITLE10=Diggin' Diz
TTITLE11=Moose the Mooche
TTITLE12=Yardbird Suite
TTITLE13=Ornithology
TTITLE14=A Night in Tunisia
TTITLE15=Max Making Wax
TTITLE16=Lover Man
TTITLE17=The Gypsy
TTITLE18=Bebop A
TTITLE19=This Is Always
TTITLE20=Dark Shadows
EXTD=
EXTT0=
EXTT1=
EXTT2=
EXTT3=
EXTT4=
EXTT5=
EXTT6=
EXTT7=
EXTT8=
EXTT9=
EXTT10=
EXTT11=
EXTT12=
EXTT13=
EXTT14=
EXTT15=
EXTT16=
EXTT17=
EXTT18=
EXTT19=
EXTT20=
PLAYORDER=
